<?xml version="1.0" encoding="utf-8"?>
<!-- Generator: Adobe Illustrator 24.1.0, SVG Export Plug-In . SVG Version: 6.00 Build 0)  -->
<svg version="1.1" id="Layer_1" xmlns="http://www.w3.org/2000/svg" xmlns:xlink="http://www.w3.org/1999/xlink" x="0px" y="0px"
	 viewBox="0 0 183.07 167.3" style="enable-background:new 0 0 183.07 167.3;" xml:space="preserve">
<style type="text/css">
	.st0{fill:#002036;}
</style>
<g>
	<g>
		<path class="st0" d="M75.39,109.74v12.39L2,165.3V53.24L89.85,2l91.23,50.68v108.31l-74.71-41.67v-9.2l67.57,37.73v-39.79
			l-54.81-29.28v-9.2l55,28.16V58.87L96.79,14.01v101.92c-0.49,0.44-3,2.63-6.76,2.44c-3.17-0.16-5.24-1.91-5.82-2.44
			c0-33.66,0-67.32,0-100.99L53.24,33.91v60.25l-11.83,8.26l-0.19-62.88L11.2,58.5v86.72L75.39,109.74z"/>
		<path class="st0" d="M2,167.3c-0.34,0-0.69-0.09-0.99-0.26C0.38,166.68,0,166.02,0,165.3V53.24c0-0.71,0.38-1.37,0.99-1.73
			L88.84,0.27c0.61-0.36,1.36-0.36,1.98-0.02l91.22,50.68c0.63,0.35,1.03,1.02,1.03,1.75v108.31c0,0.71-0.38,1.37-0.99,1.72
			c-0.61,0.36-1.37,0.37-1.99,0.02l-74.71-41.67c-0.63-0.35-1.03-1.02-1.03-1.75v-9.2c0-0.71,0.38-1.37,0.99-1.72
			c0.61-0.36,1.37-0.37,1.99-0.02l64.6,36.07v-35.19l-53.75-28.72c-0.65-0.35-1.06-1.03-1.06-1.76v-9.2c0-0.7,0.36-1.34,0.96-1.71
			c0.59-0.36,1.34-0.39,1.95-0.07l52.09,26.67V60.03L98.79,17.49v98.45c0,0.56-0.24,1.1-0.66,1.48c-1.06,0.96-3.97,3.17-8.2,2.96
			c-3.51-0.18-5.94-1.93-7.07-2.96c-0.42-0.38-0.65-0.92-0.65-1.48V18.52L55.24,35.03v59.13c0,0.65-0.32,1.27-0.85,1.64l-11.83,8.26
			c-0.61,0.43-1.41,0.48-2.07,0.13c-0.66-0.34-1.08-1.02-1.08-1.77l-0.18-59.27L13.2,59.6v82.23l61.23-33.84
			c0.62-0.34,1.37-0.33,1.98,0.03c0.61,0.36,0.98,1.01,0.98,1.72v12.39c0,0.71-0.38,1.36-0.99,1.72L3.01,167.03
			C2.7,167.21,2.35,167.3,2,167.3z M4,54.39v107.42l69.39-40.82v-7.85l-61.23,33.84c-0.62,0.34-1.37,0.33-1.98-0.03
			c-0.61-0.36-0.98-1.01-0.98-1.72V58.5c0-0.69,0.35-1.33,0.93-1.69l30.03-18.96c0.62-0.39,1.39-0.41,2.03-0.06
			c0.64,0.35,1.04,1.02,1.04,1.75l0.18,59.06l7.84-5.47V33.91c0-0.7,0.36-1.34,0.96-1.71l30.97-18.96c0.62-0.38,1.39-0.39,2.02-0.04
			c0.63,0.35,1.02,1.02,1.02,1.75v100.03c0.82,0.59,2.17,1.31,3.92,1.4c2.11,0.11,3.75-0.76,4.66-1.4V14.01c0-0.71,0.38-1.38,1-1.73
			c0.62-0.36,1.38-0.36,2,0l77.34,44.86c0.62,0.36,1,1.02,1,1.73v38.85c0,0.7-0.36,1.34-0.96,1.71c-0.59,0.36-1.34,0.39-1.95,0.07
			l-52.09-26.67v4.73l53.75,28.72c0.65,0.35,1.06,1.03,1.06,1.76v39.79c0,0.71-0.38,1.37-0.99,1.72c-0.61,0.36-1.37,0.37-1.99,0.02
			l-64.6-36.07v4.62l70.71,39.44V53.86L89.87,4.3L4,54.39z"/>
	</g>
</g>
</svg>
