<?xml version="1.0" encoding="utf-8"?>
<!-- Generator: Adobe Illustrator 24.1.0, SVG Export Plug-In . SVG Version: 6.00 Build 0)  -->
<svg version="1.1" id="Layer_1" xmlns="http://www.w3.org/2000/svg" xmlns:xlink="http://www.w3.org/1999/xlink" x="0px" y="0px"
	 viewBox="0 0 418.93 292.27" style="enable-background:new 0 0 418.93 292.27;" xml:space="preserve">
<style type="text/css">
	.st0{fill:#002036;}
</style>
<g>
	<g>
		<g>
			<path class="st0" d="M201.97,109.74v12.39l-73.39,43.17V53.24L216.43,2l91.23,50.68v108.31l-74.71-41.67v-9.2l67.57,37.73v-39.79
				l-54.81-29.28v-9.2l55,28.16V58.87l-77.34-44.86v101.92c-0.49,0.44-3,2.63-6.76,2.44c-3.17-0.16-5.24-1.91-5.82-2.44
				c0-33.66,0-67.32,0-100.99l-30.97,18.96v60.25L168,102.42l-0.19-62.88L137.78,58.5v86.72L201.97,109.74z"/>
			<path class="st0" d="M128.58,167.3c-0.34,0-0.69-0.09-0.99-0.26c-0.62-0.36-1.01-1.02-1.01-1.74V53.24
				c0-0.71,0.38-1.37,0.99-1.73l87.85-51.24c0.61-0.36,1.36-0.36,1.98-0.02l91.22,50.68c0.63,0.35,1.03,1.02,1.03,1.75v108.31
				c0,0.71-0.38,1.37-0.99,1.72c-0.61,0.36-1.37,0.37-1.99,0.02l-74.71-41.67c-0.63-0.35-1.03-1.02-1.03-1.75v-9.2
				c0-0.71,0.38-1.37,0.99-1.72c0.61-0.36,1.37-0.37,1.99-0.02l64.6,36.07v-35.19l-53.75-28.72c-0.65-0.35-1.06-1.03-1.06-1.76v-9.2
				c0-0.7,0.36-1.34,0.96-1.71c0.59-0.36,1.34-0.39,1.95-0.07l52.09,26.67V60.03l-73.34-42.54v98.45c0,0.56-0.24,1.1-0.66,1.48
				c-1.06,0.96-3.97,3.17-8.2,2.96c-3.51-0.18-5.94-1.93-7.07-2.96c-0.42-0.38-0.65-0.92-0.65-1.48V18.52l-26.97,16.51v59.13
				c0,0.65-0.32,1.27-0.85,1.64l-11.83,8.26c-0.61,0.43-1.41,0.48-2.07,0.13c-0.66-0.34-1.08-1.02-1.08-1.77l-0.18-59.27
				L139.78,59.6v82.23L201,107.99c0.62-0.34,1.37-0.33,1.98,0.03c0.61,0.36,0.98,1.01,0.98,1.72v12.39c0,0.71-0.38,1.36-0.99,1.72
				l-73.39,43.17C129.28,167.21,128.93,167.3,128.58,167.3z M130.58,54.39v107.42l69.39-40.82v-7.85l-61.23,33.84
				c-0.62,0.34-1.37,0.33-1.98-0.03c-0.61-0.36-0.98-1.01-0.98-1.72V58.5c0-0.69,0.35-1.33,0.93-1.69l30.03-18.96
				c0.62-0.39,1.39-0.41,2.03-0.06c0.64,0.35,1.04,1.02,1.04,1.75l0.18,59.06l7.84-5.47V33.91c0-0.7,0.36-1.34,0.96-1.71
				l30.97-18.96c0.62-0.38,1.39-0.39,2.02-0.04c0.63,0.35,1.02,1.02,1.02,1.75v100.03c0.82,0.59,2.17,1.31,3.92,1.4
				c2.11,0.11,3.75-0.76,4.66-1.4V14.01c0-0.71,0.38-1.38,1-1.73c0.62-0.36,1.38-0.36,2,0l77.34,44.86c0.62,0.36,1,1.02,1,1.73
				v38.85c0,0.7-0.36,1.34-0.96,1.71c-0.59,0.36-1.34,0.39-1.95,0.07l-52.09-26.67v4.73l53.75,28.72c0.65,0.35,1.06,1.03,1.06,1.76
				v39.79c0,0.71-0.38,1.37-0.99,1.72c-0.61,0.36-1.37,0.37-1.99,0.02l-64.6-36.07v4.62l70.71,39.44V53.86L216.45,4.3L130.58,54.39z
				"/>
		</g>
	</g>
	<g>
		<g>
			<path class="st0" d="M388.86,239.43c0.3,2.69,1.22,4.8,2.74,6.33c1.52,1.54,3.67,2.3,6.44,2.3c2.38,0,4.54-0.82,6.48-2.45
				c1.61-1.5,2.41-3.47,2.41-5.94c0-2.71-1.16-4.96-3.49-6.73c-2.19-1.8-5.43-2.7-9.72-2.7v-9.43c0.8-0.11,1.63-0.23,2.47-0.35
				c0.84-0.12,1.66-0.33,2.45-0.6s1.53-0.64,2.22-1.08c0.69-0.44,1.27-1.02,1.74-1.74c0.39-0.64,0.66-1.25,0.83-1.83
				c0.17-0.58,0.25-1.13,0.25-1.66c0-1.63-0.54-2.99-1.62-4.07c-1.22-0.89-2.66-1.33-4.32-1.33c-1.63,0-3.09,0.46-4.36,1.37
				s-2.15,2.16-2.62,3.74h-10.55c0.33-2.41,0.98-4.59,1.93-6.54s2.2-3.63,3.74-5.03c1.54-1.4,3.32-2.47,5.36-3.22
				c2.04-0.75,4.3-1.12,6.79-1.12c4.82,0,8.78,1.52,11.88,4.57c3.24,3.16,4.86,6.76,4.86,10.8c0,2.66-0.72,5-2.16,7.02
				c-1.33,2.13-3.31,3.83-5.94,5.11c1.66,0.53,3.18,1.26,4.55,2.2c1.37,0.94,2.53,2.06,3.49,3.34c0.96,1.29,1.7,2.72,2.22,4.3
				c0.53,1.58,0.79,3.24,0.79,4.98c0,5.15-1.88,9.57-5.65,13.25c-3.82,3.6-8.68,5.4-14.58,5.4c-2.91,0-5.52-0.46-7.83-1.37
				c-2.31-0.91-4.31-2.2-5.98-3.86c-1.68-1.66-3.01-3.65-4.01-5.96c-1-2.31-1.62-4.88-1.87-7.7H388.86z"/>
		</g>
		<g>
			<path class="st0" d="M56.86,201.93l9.48,56.62H56.11l-6.08-35.81l-11.85,35.81h-9.48l-12.12-35.81l-6.04,35.81H0l9.75-56.62h10.5
				l13.19,39.53l13.15-39.53H56.86z"/>
			<path class="st0" d="M110.19,201.93l0.28,0.79l-5.53,14.25l-7.66,19.47h15.28l-3.67-9.2l5.53-14.25l17.65,45.57H120.7
				l-4.19-11.61H93.33l-4.74,11.61H77.54l21.84-56.62H110.19z"/>
			<path class="st0" d="M187.84,201.93v56.62h-10.31l-24.48-37.12v37.12h-10.5v-56.62h10.27l24.21,37.39v-37.39H187.84z"/>
			<path class="st0" d="M230.65,201.93h10.54v35.89c0,2.87-0.55,5.56-1.64,8.07c-1.09,2.51-2.58,4.71-4.46,6.58
				c-1.88,1.87-4.08,3.35-6.59,4.44c-2.51,1.09-5.21,1.64-8.07,1.64c-2.87,0-5.56-0.55-8.07-1.64c-2.51-1.09-4.71-2.57-6.58-4.44
				c-1.87-1.87-3.35-4.06-4.44-6.58c-1.09-2.51-1.64-5.2-1.64-8.07v-35.89h10.54v36.13c0,1.42,0.27,2.75,0.81,3.99
				c0.54,1.24,1.27,2.32,2.19,3.24c0.92,0.92,2,1.65,3.24,2.17c1.24,0.53,2.55,0.79,3.95,0.79c1.42,0,2.75-0.26,3.99-0.79
				c1.24-0.53,2.32-1.25,3.24-2.17c0.92-0.92,1.65-2,2.19-3.24c0.54-1.24,0.81-2.57,0.81-3.99V201.93z"/>
			<path class="st0" d="M279.78,201.93l0.28,0.79l-5.53,14.25l-7.66,19.47h15.28l-3.67-9.2l5.53-14.25l17.65,45.57h-11.37
				l-4.19-11.61h-23.18l-4.74,11.61h-11.06l21.84-56.62H279.78z"/>
			<path class="st0" d="M323.64,201.93v46.32h20.89v10.31h-31.39v-56.62H323.64z"/>
		</g>
		<g>
			<path class="st0" d="M4.52,280.33H0.19v-1.9c3.78,0,6.98,0,10.76,0v1.9H6.65v11.27H4.52V280.33z"/>
			<path class="st0" d="M28.63,288.83H21.5l-1.24,2.77h-2.24l5.91-13.17h2.3l5.91,13.17h-2.24L28.63,288.83z M25.07,280.65
				l-2.79,6.27h5.57L25.07,280.65z"/>
			<path class="st0" d="M43.82,278.43v11.21h6.94v1.96h-9.05v-13.17H43.82z"/>
			<path class="st0" d="M61.62,278.43v11.21h6.94v1.96h-9.05v-13.17H61.62z"/>
			<path class="st0" d="M88.04,291.6h-9.73c0-4.38,0-8.79,0-13.17h9.67v2.05h-7.56v3.56h7.26v1.96h-7.26v3.54h7.62V291.6z"/>
			<path class="st0" d="M109.87,291.6h-2.46l-4.01-4.55h-2.78v4.55h-2.11v-13.19c2.05,0,4.08,0.02,6.13,0.02
				c3.05,0,4.65,2.09,4.65,4.31c0,1.88-0.98,3.72-3.58,4.1l3.93,4.38L109.87,291.6z M100.61,280.35v4.78h4.01
				c1.75,0,2.52-1.11,2.52-2.35c0-1.18-0.77-2.43-2.5-2.43H100.61z"/>
			<path class="st0" d="M137.26,278.43c4.5,0,6.55,3.22,6.6,6.47c0.08,3.33-1.99,6.7-6.6,6.7c-1.58,0-3.41,0-4.99,0v-13.17H137.26z
				 M134.36,289.56h2.9c3.22,0,4.57-2.37,4.52-4.68c-0.06-2.22-1.41-4.44-4.52-4.44h-2.9V289.56z"/>
			<path class="st0" d="M162.87,291.6h-9.73c0-4.38,0-8.79,0-13.17h9.67v2.05h-7.56v3.56h7.26v1.96h-7.26v3.54h7.62V291.6z"/>
			<path class="st0" d="M194.32,288.83h-7.13l-1.24,2.77h-2.24l5.91-13.17h2.29l5.91,13.17h-2.24L194.32,288.83z M190.77,280.65
				l-2.78,6.27h5.57L190.77,280.65z"/>
			<path class="st0" d="M217.77,291.6h-2.46l-4.01-4.55h-2.78v4.55h-2.11v-13.19c2.05,0,4.08,0.02,6.13,0.02
				c3.05,0,4.65,2.09,4.65,4.31c0,1.88-0.98,3.72-3.58,4.1l3.93,4.38L217.77,291.6z M208.51,280.35v4.78h4.01
				c1.75,0,2.52-1.11,2.52-2.35c0-1.18-0.77-2.43-2.5-2.43H208.51z"/>
			<path class="st0" d="M240.37,284.88c0.02,1.54-0.41,3.12-1.3,4.35l1.58,1.56l-1.47,1.49l-1.62-1.58
				c-1.02,0.71-2.33,1.11-3.91,1.11c-4.65,0-6.75-3.35-6.75-6.83c0-3.46,2.18-6.83,6.75-6.83S240.33,281.46,240.37,284.88z
				 M228.99,285.01c0.02,2.41,1.56,4.83,4.67,4.83c3.16,0,4.7-2.56,4.63-5.02c-0.06-2.37-1.37-4.76-4.63-4.76
				C230.47,280.06,228.95,282.55,228.99,285.01z"/>
			<path class="st0" d="M261.65,278.45v7.7c0,3.88-2.56,5.81-5.74,5.7c-2.94-0.08-5.44-1.96-5.44-5.7v-7.7h2.09v7.7
				c0,2.39,1.39,3.69,3.35,3.76c2.11,0.11,3.65-1.26,3.65-3.76v-7.7H261.65z"/>
			<path class="st0" d="M272.55,291.6v-13.17h2.09v13.17H272.55z"/>
			<path class="st0" d="M287.7,280.33h-4.33v-1.9c3.78,0,6.98,0,10.76,0v1.9h-4.31v11.27h-2.13V280.33z"/>
			<path class="st0" d="M313.6,291.6h-9.73c0-4.38,0-8.79,0-13.17h9.67v2.05h-7.56v3.56h7.26v1.96h-7.26v3.54h7.62V291.6z"/>
			<path class="st0" d="M335.01,289.9c-1.35,1.34-3.1,1.96-4.95,1.96c-4.78,0-6.92-3.29-6.94-6.75s2.24-6.9,6.94-6.9
				c1.77,0,3.48,0.66,4.82,1.99l-1.41,1.35c-0.94-0.92-2.18-1.35-3.41-1.35c-3.35,0-4.87,2.46-4.85,4.89
				c0.02,2.41,1.45,4.8,4.85,4.8c1.22,0,2.58-0.51,3.5-1.43L335.01,289.9z"/>
			<path class="st0" d="M347.91,280.33h-4.33v-1.9c3.78,0,6.98,0,10.76,0v1.9h-4.31v11.27h-2.13V280.33z"/>
			<path class="st0" d="M374.08,278.45v7.7c0,3.88-2.56,5.81-5.74,5.7c-2.94-0.08-5.44-1.96-5.44-5.7v-7.7h2.09v7.7
				c0,2.39,1.39,3.69,3.35,3.76c2.11,0.11,3.65-1.26,3.65-3.76v-7.7H374.08z"/>
			<path class="st0" d="M396.34,291.6h-2.46l-4.01-4.55h-2.78v4.55h-2.11v-13.19c2.05,0,4.08,0.02,6.13,0.02
				c3.05,0,4.65,2.09,4.65,4.31c0,1.88-0.98,3.72-3.58,4.1l3.93,4.38L396.34,291.6z M387.09,280.35v4.78h4.01
				c1.75,0,2.52-1.11,2.52-2.35c0-1.18-0.77-2.43-2.5-2.43H387.09z"/>
			<path class="st0" d="M415.43,288.83h-7.13l-1.24,2.77h-2.24l5.91-13.17h2.29l5.91,13.17h-2.24L415.43,288.83z M411.87,280.65
				l-2.78,6.27h5.57L411.87,280.65z"/>
		</g>
	</g>
</g>
</svg>
